<svg width="2477" height="2477" viewBox="0 0 2477 2477" fill="none" xmlns="http://www.w3.org/2000/svg">
<g opacity="0.5">
<path d="M18.3017 1848.6L628.4 1238.5" stroke="#8A80FF" stroke-width="1.00016"/>
<path d="M628.395 2458.7L1238.49 1848.6" stroke="#8A80FF" stroke-width="1.00016"/>
<path d="M1238.5 1848.6L1848.59 1238.5" stroke="#8A80FF" stroke-width="1.00016"/>
<path d="M323.348 1543.55L1238.5 628.401" stroke="#8A80FF" stroke-width="1.00016"/>
<path d="M323.348 1543.55L323.348 2153.65" stroke="#8A80FF" stroke-width="1.00016"/>
<path d="M628.395 1238.5L628.395 2458.7" stroke="#8A80FF" stroke-width="1.00016"/>
<path d="M323.348 933.45L323.348 1543.55" stroke="#8A80FF" stroke-width="1.00016"/>
<path d="M1238.5 1848.6L628.398 1848.6" stroke="#8A80FF" stroke-width="1.00016"/>
<path d="M1848.6 1848.6L1238.5 1848.6" stroke="#8A80FF" stroke-width="1.00016"/>
<path d="M18.3017 1848.6L628.4 1848.6" stroke="#8A80FF" stroke-width="1.00016"/>
<path d="M323.348 2153.65H933.447" stroke="#8A80FF" stroke-width="1.00016"/>
<path d="M323.348 1543.55L2153.64 1543.55" stroke="#8A80FF" stroke-width="1.00016"/>
<path d="M1543.54 1543.55L2153.64 1543.55" stroke="url(#paint0_linear_16896_11397)" stroke-opacity="0.5" stroke-width="25.004" stroke-linecap="round"/>
<path d="M628.395 1238.5L2458.69 1238.5" stroke="#8A80FF" stroke-width="1.00016"/>
<path d="M628.395 1238.5L933.444 1238.5" stroke="url(#paint1_linear_16896_11397)" stroke-opacity="0.5" stroke-width="25.004" stroke-linecap="round"/>
<path d="M323.348 933.45L2153.64 933.451" stroke="#8A80FF" stroke-width="1.00016"/>
<path d="M323.348 323.352L2153.64 323.352" stroke="#8A80FF" stroke-width="1.00016"/>
<path d="M628.395 628.401L1848.59 628.401" stroke="#8A80FF" stroke-width="1.00016"/>
<path d="M933.448 2153.65H1543.55" stroke="#8A80FF" stroke-width="1.00016"/>
<path d="M933.448 933.45L933.448 2153.65" stroke="#8A80FF" stroke-width="1.00016"/>
<path d="M323.348 2153.65L1238.5 1238.5" stroke="#8A80FF" stroke-width="1.00016"/>
<path d="M18.3017 1848.6L628.4 1238.5" stroke="#8A80FF" stroke-width="1.00016"/>
<path d="M628.395 2458.7L1238.49 1848.6" stroke="#8A80FF" stroke-width="1.00016"/>
<path d="M1238.5 1848.6L2153.64 933.45" stroke="#8A80FF" stroke-width="1.00016"/>
<path d="M1696.07 1391.02L1848.59 1238.5" stroke="url(#paint2_linear_16896_11397)" stroke-opacity="0.5" stroke-width="25.004" stroke-linecap="round"/>
<path d="M1543.54 2153.65L2153.64 1543.55" stroke="#8A80FF" stroke-width="1.00016"/>
<path d="M323.348 933.451L933.447 323.352" stroke="#8A80FF" stroke-width="1.00016"/>
<path d="M323.348 1543.55L1543.55 323.352" stroke="#8A80FF" stroke-width="1.00016"/>
<path d="M323.348 1543.55L323.348 2153.65" stroke="#8A80FF" stroke-width="1.00016"/>
<path d="M628.395 1238.5L628.395 2458.7" stroke="#8A80FF" stroke-width="1.00016"/>
<path d="M628.395 1238.5L628.395 36.6061" stroke="#8A80FF" stroke-width="1.00016"/>
<path d="M628.395 1238.5L628.395 933.451" stroke="url(#paint3_linear_16896_11397)" stroke-opacity="0.5" stroke-width="25.004" stroke-linecap="round"/>
<path d="M323.348 323.352L323.348 1543.55" stroke="#8A80FF" stroke-width="1.00016"/>
<path d="M2458.69 1848.6L1238.49 1848.6" stroke="#8A80FF" stroke-width="1.00016"/>
<path d="M18.3017 1848.6L628.4 1848.6" stroke="#8A80FF" stroke-width="1.00016"/>
<path d="M323.348 2153.65H933.447" stroke="#8A80FF" stroke-width="1.00016"/>
<path d="M933.448 2153.65H2153.64" stroke="#8A80FF" stroke-width="1.00016"/>
<path d="M933.448 323.352L933.448 2153.65" stroke="#8A80FF" stroke-width="1.00016"/>
<path d="M1238.5 18.3027L1238.5 1848.6" stroke="#8A80FF" stroke-width="1.00016"/>
<path d="M1848.6 628.401L1848.6 1848.6" stroke="#8A80FF" stroke-width="1.00016"/>
<path d="M1543.54 323.352L1543.54 2153.65" stroke="#8A80FF" stroke-width="1.00016"/>
<path d="M2153.64 323.352L2153.64 2153.65" stroke="#8A80FF" stroke-width="1.00016"/>
<path d="M323.348 2153.65L1848.59 628.401" stroke="#8A80FF" stroke-width="1.00016"/>
<path d="M780.923 1696.07L933.448 1543.55" stroke="url(#paint4_linear_16896_11397)" stroke-opacity="0.5" stroke-width="25.004" stroke-linecap="round"/>
</g>
<circle cx="323.352" cy="2153.65" r="18.303" fill="#8A80FF" fill-opacity="0.35"/>
<circle cx="323.352" cy="2153.65" r="17.178" stroke="white" stroke-opacity="0.4" stroke-width="2.25"/>
<circle cx="628.398" cy="2458.7" r="18.303" fill="#8A80FF" fill-opacity="0.35"/>
<circle cx="628.398" cy="2458.7" r="17.178" stroke="white" stroke-opacity="0.4" stroke-width="2.25"/>
<circle cx="933.449" cy="2153.65" r="18.303" fill="#8A80FF" fill-opacity="0.35"/>
<circle cx="933.449" cy="2153.65" r="17.178" stroke="white" stroke-opacity="0.4" stroke-width="2.25"/>
<circle cx="323.352" cy="1543.55" r="18.303" fill="#8A80FF" fill-opacity="0.35"/>
<circle cx="323.352" cy="1543.55" r="17.178" stroke="white" stroke-opacity="0.4" stroke-width="2.25"/>
<circle cx="323.352" cy="933.451" r="18.303" fill="#8A80FF" fill-opacity="0.35"/>
<circle cx="323.352" cy="933.451" r="17.178" stroke="white" stroke-opacity="0.4" stroke-width="2.25"/>
<circle cx="933.449" cy="1543.55" r="18.303" fill="#8A80FF" fill-opacity="0.35"/>
<circle cx="933.449" cy="1543.55" r="17.178" stroke="white" stroke-opacity="0.4" stroke-width="2.25"/>
<circle cx="933.449" cy="933.451" r="18.303" fill="#8A80FF" fill-opacity="0.35"/>
<circle cx="933.449" cy="933.451" r="17.178" stroke="white" stroke-opacity="0.4" stroke-width="2.25"/>
<circle cx="1543.55" cy="1543.55" r="18.303" fill="#8A80FF" fill-opacity="0.35"/>
<circle cx="1543.55" cy="1543.55" r="17.178" stroke="white" stroke-opacity="0.4" stroke-width="2.25"/>
<circle cx="1543.55" cy="2153.65" r="18.303" fill="#8A80FF" fill-opacity="0.35"/>
<circle cx="1543.55" cy="2153.65" r="17.178" stroke="white" stroke-opacity="0.4" stroke-width="2.25"/>
<circle cx="628.398" cy="1848.6" r="18.303" fill="#8A80FF" fill-opacity="0.35"/>
<circle cx="628.398" cy="1848.6" r="17.178" stroke="white" stroke-opacity="0.4" stroke-width="2.25"/>
<circle cx="18.303" cy="1848.6" r="18.303" fill="#8A80FF" fill-opacity="0.35"/>
<circle cx="18.303" cy="1848.6" r="17.178" stroke="white" stroke-opacity="0.4" stroke-width="2.25"/>
<circle cx="628.398" cy="1238.5" r="18.303" fill="#8A80FF" fill-opacity="0.35"/>
<circle cx="628.398" cy="1238.5" r="17.178" stroke="white" stroke-opacity="0.4" stroke-width="2.25"/>
<circle cx="1238.5" cy="1848.6" r="18.303" fill="#8A80FF" fill-opacity="0.35"/>
<circle cx="1238.5" cy="1848.6" r="17.178" stroke="white" stroke-opacity="0.4" stroke-width="2.25"/>
<circle cx="1238.5" cy="1238.5" r="18.303" fill="#8A80FF" fill-opacity="0.35"/>
<circle cx="1238.5" cy="1238.5" r="17.178" stroke="white" stroke-opacity="0.4" stroke-width="2.25"/>
<circle cx="1848.59" cy="1848.6" r="18.303" fill="#8A80FF" fill-opacity="0.35"/>
<circle cx="1848.59" cy="1848.6" r="17.178" stroke="white" stroke-opacity="0.4" stroke-width="2.25"/>
<circle cx="1848.59" cy="1238.5" r="18.303" fill="#8A80FF" fill-opacity="0.35"/>
<circle cx="1848.59" cy="1238.5" r="17.178" stroke="white" stroke-opacity="0.4" stroke-width="2.25"/>
<circle cx="323.352" cy="2153.65" r="18.303" fill="#8A80FF" fill-opacity="0.35"/>
<circle cx="323.352" cy="2153.65" r="17.178" stroke="white" stroke-opacity="0.4" stroke-width="2.25"/>
<circle cx="628.398" cy="2458.7" r="18.303" fill="#8A80FF" fill-opacity="0.35"/>
<circle cx="628.398" cy="2458.7" r="17.178" stroke="white" stroke-opacity="0.4" stroke-width="2.25"/>
<circle cx="933.449" cy="2153.65" r="18.303" fill="#8A80FF" fill-opacity="0.35"/>
<circle cx="933.449" cy="2153.65" r="17.178" stroke="white" stroke-opacity="0.4" stroke-width="2.25"/>
<circle cx="323.352" cy="1543.55" r="18.303" fill="#8A80FF" fill-opacity="0.35"/>
<circle cx="323.352" cy="1543.55" r="17.178" stroke="white" stroke-opacity="0.4" stroke-width="2.25"/>
<circle cx="323.352" cy="933.451" r="18.303" fill="#8A80FF" fill-opacity="0.35"/>
<circle cx="323.352" cy="933.451" r="17.178" stroke="white" stroke-opacity="0.4" stroke-width="2.25"/>
<circle cx="323.352" cy="323.353" r="18.303" fill="#8A80FF" fill-opacity="0.35"/>
<circle cx="323.352" cy="323.353" r="17.178" stroke="white" stroke-opacity="0.4" stroke-width="2.25"/>
<circle cx="933.449" cy="323.353" r="18.303" fill="#8A80FF" fill-opacity="0.35"/>
<circle cx="933.449" cy="323.353" r="17.178" stroke="white" stroke-opacity="0.4" stroke-width="2.25"/>
<circle cx="1238.5" cy="18.303" r="18.303" fill="#8A80FF" fill-opacity="0.35"/>
<circle cx="1238.5" cy="18.303" r="17.178" stroke="white" stroke-opacity="0.4" stroke-width="2.25"/>
<circle cx="628.398" cy="18.303" r="18.303" fill="#8A80FF" fill-opacity="0.35"/>
<circle cx="628.398" cy="18.303" r="17.178" stroke="white" stroke-opacity="0.4" stroke-width="2.25"/>
<circle cx="933.449" cy="1543.55" r="18.303" fill="#8A80FF" fill-opacity="0.35"/>
<circle cx="933.449" cy="1543.55" r="17.178" stroke="white" stroke-opacity="0.4" stroke-width="2.25"/>
<circle cx="933.449" cy="933.451" r="18.303" fill="#8A80FF" fill-opacity="0.35"/>
<circle cx="933.449" cy="933.451" r="17.178" stroke="white" stroke-opacity="0.4" stroke-width="2.25"/>
<circle cx="1543.55" cy="933.451" r="18.303" fill="#8A80FF" fill-opacity="0.35"/>
<circle cx="1543.55" cy="933.451" r="17.178" stroke="white" stroke-opacity="0.4" stroke-width="2.25"/>
<circle cx="1543.55" cy="323.353" r="18.303" fill="#8A80FF" fill-opacity="0.35"/>
<circle cx="1543.55" cy="323.353" r="17.178" stroke="white" stroke-opacity="0.4" stroke-width="2.25"/>
<circle cx="2153.65" cy="933.451" r="18.303" fill="#8A80FF" fill-opacity="0.35"/>
<circle cx="2153.65" cy="933.451" r="17.178" stroke="white" stroke-opacity="0.4" stroke-width="2.25"/>
<circle cx="2153.65" cy="1543.55" r="18.303" fill="#8A80FF" fill-opacity="0.35"/>
<circle cx="2153.65" cy="1543.55" r="17.178" stroke="white" stroke-opacity="0.4" stroke-width="2.25"/>
<circle cx="1543.55" cy="1543.55" r="18.303" fill="#8A80FF" fill-opacity="0.35"/>
<circle cx="1543.55" cy="1543.55" r="17.178" stroke="white" stroke-opacity="0.4" stroke-width="2.25"/>
<circle cx="1543.55" cy="2153.65" r="18.303" fill="#8A80FF" fill-opacity="0.35"/>
<circle cx="1543.55" cy="2153.65" r="17.178" stroke="white" stroke-opacity="0.4" stroke-width="2.25"/>
<circle cx="628.398" cy="1848.6" r="18.303" fill="#8A80FF" fill-opacity="0.35"/>
<circle cx="628.398" cy="1848.6" r="17.178" stroke="white" stroke-opacity="0.4" stroke-width="2.25"/>
<circle cx="18.303" cy="1848.6" r="18.303" fill="#8A80FF" fill-opacity="0.35"/>
<circle cx="18.303" cy="1848.6" r="17.178" stroke="white" stroke-opacity="0.4" stroke-width="2.25"/>
<circle cx="628.398" cy="1238.5" r="18.303" fill="#8A80FF" fill-opacity="0.35"/>
<circle cx="628.398" cy="1238.5" r="17.178" stroke="white" stroke-opacity="0.4" stroke-width="2.25"/>
<circle cx="1238.5" cy="1848.6" r="18.303" fill="#8A80FF" fill-opacity="0.35"/>
<circle cx="1238.5" cy="1848.6" r="17.178" stroke="white" stroke-opacity="0.4" stroke-width="2.25"/>
<circle cx="1238.5" cy="1238.5" r="18.303" fill="#8A80FF" fill-opacity="0.35"/>
<circle cx="1238.5" cy="1238.5" r="17.178" stroke="white" stroke-opacity="0.4" stroke-width="2.25"/>
<circle cx="1238.5" cy="628.401" r="18.303" fill="#8A80FF" fill-opacity="0.35"/>
<circle cx="1238.5" cy="628.401" r="17.178" stroke="white" stroke-opacity="0.4" stroke-width="2.25"/>
<circle cx="628.398" cy="628.401" r="18.303" fill="#8A80FF" fill-opacity="0.35"/>
<circle cx="628.398" cy="628.401" r="17.178" stroke="white" stroke-opacity="0.4" stroke-width="2.25"/>
<circle cx="1848.59" cy="1848.6" r="18.303" fill="#8A80FF" fill-opacity="0.35"/>
<circle cx="1848.59" cy="1848.6" r="17.178" stroke="white" stroke-opacity="0.4" stroke-width="2.25"/>
<circle cx="2458.69" cy="1848.6" r="18.303" fill="#8A80FF" fill-opacity="0.35"/>
<circle cx="2458.69" cy="1848.6" r="17.178" stroke="white" stroke-opacity="0.4" stroke-width="2.25"/>
<circle cx="2153.65" cy="2153.65" r="18.303" fill="#8A80FF" fill-opacity="0.35"/>
<circle cx="2153.65" cy="2153.65" r="17.178" stroke="white" stroke-opacity="0.4" stroke-width="2.25"/>
<circle cx="1848.59" cy="1238.5" r="18.303" fill="#8A80FF" fill-opacity="0.35"/>
<circle cx="1848.59" cy="1238.5" r="17.178" stroke="white" stroke-opacity="0.4" stroke-width="2.25"/>
<circle cx="2458.69" cy="1238.5" r="18.303" fill="#8A80FF" fill-opacity="0.35"/>
<circle cx="2458.69" cy="1238.5" r="17.178" stroke="white" stroke-opacity="0.4" stroke-width="2.25"/>
<circle cx="1848.59" cy="628.401" r="18.303" fill="#8A80FF" fill-opacity="0.35"/>
<circle cx="1848.59" cy="628.401" r="17.178" stroke="white" stroke-opacity="0.4" stroke-width="2.25"/>
<circle cx="2153.65" cy="323.353" r="18.303" fill="#8A80FF" fill-opacity="0.35"/>
<circle cx="2153.65" cy="323.353" r="17.178" stroke="white" stroke-opacity="0.4" stroke-width="2.25"/>
<defs>
<linearGradient id="paint0_linear_16896_11397" x1="2138.39" y1="1544.59" x2="1543.54" y2="1544.59" gradientUnits="userSpaceOnUse">
<stop stop-color="#8A80FF"/>
<stop offset="1" stop-color="#8A80FF" stop-opacity="0"/>
</linearGradient>
<linearGradient id="paint1_linear_16896_11397" x1="925.818" y1="1239.54" x2="628.395" y2="1239.54" gradientUnits="userSpaceOnUse">
<stop stop-color="#8A80FF"/>
<stop offset="1" stop-color="#8A80FF" stop-opacity="0"/>
</linearGradient>
<linearGradient id="paint2_linear_16896_11397" x1="1848.59" y1="1238.5" x2="1696.07" y2="1391.02" gradientUnits="userSpaceOnUse">
<stop stop-color="#8A80FF"/>
<stop offset="1" stop-color="#8A80FF" stop-opacity="0"/>
</linearGradient>
<linearGradient id="paint3_linear_16896_11397" x1="629.437" y1="941.077" x2="629.437" y2="1238.5" gradientUnits="userSpaceOnUse">
<stop stop-color="#8A80FF"/>
<stop offset="1" stop-color="#8A80FF" stop-opacity="0"/>
</linearGradient>
<linearGradient id="paint4_linear_16896_11397" x1="933.448" y1="1543.55" x2="780.923" y2="1696.07" gradientUnits="userSpaceOnUse">
<stop stop-color="#8A80FF"/>
<stop offset="1" stop-color="#8A80FF" stop-opacity="0"/>
</linearGradient>
</defs>
</svg>
